<svg xmlns="http://www.w3.org/2000/svg" width="64" height="64" viewBox="0 0 64 64"><defs><style>.a{fill:#707070;}</style></defs><path class="a" d="M33,1A32,32,0,1,0,65,33,32,32,0,0,0,33,1ZM23.72,4.48l3.13,1.57a9.07,9.07,0,0,0,4.06,1h2A2.24,2.24,0,0,1,35,8.29a2.15,2.15,0,0,1-.95,2.19,2.56,2.56,0,0,0-1,2.34,2.51,2.51,0,0,0,1.41,2h0a5.41,5.41,0,0,0,4.73-.22,2.5,2.5,0,0,1,2.2,0,13.91,13.91,0,0,1,1.9,1.15c.35.25.65.5.94.75A2,2,0,0,1,45,18a1.88,1.88,0,0,1-.57,1.43,15.92,15.92,0,0,1-2,1.73,15.47,15.47,0,0,1-5,2.35,5.76,5.76,0,0,0-2.59,1.53,5.89,5.89,0,0,0-1.43,2.7,4.25,4.25,0,0,0-3.7-.74,4.42,4.42,0,0,0-2.66,2.64,4.71,4.71,0,0,0,.06,3.78,4.58,4.58,0,0,0,2.33,1.93,4.4,4.4,0,0,1,1.77,1.23,3.51,3.51,0,0,1,.47.8c-.44-.14-.93-.28-1.46-.4a18.15,18.15,0,0,0-4.6-.35,5,5,0,0,1-3.07-.5A4.32,4.32,0,0,1,21,33.76a8.16,8.16,0,0,0-2.28-4.49A8.16,8.16,0,0,0,16,27.66a7.3,7.3,0,0,1-2.34-1.39l-.15-.14a2.71,2.71,0,0,1-.46-3.21,5.64,5.64,0,0,0-.22-5.45A5.54,5.54,0,0,0,9,15,30.17,30.17,0,0,1,23.72,4.48Zm3.4,57.94A3.07,3.07,0,0,1,26,60.74a3.16,3.16,0,0,1,.3-2.36,5.13,5.13,0,0,0,.56-2.46,2.86,2.86,0,0,1,.85-2.19,2.76,2.76,0,0,1,1-.58,5,5,0,0,0,3-2.58,15.09,15.09,0,0,1,1.17-2c.87-1.25,1.62-2.33,2.5-2.62,1.14-.38,2.86.4,4.5,2a12.49,12.49,0,0,1,1.81,2.37,20.78,20.78,0,0,0,3.7,4.4,20.51,20.51,0,0,0,4.52,3,29.95,29.95,0,0,1-22.73,4.62Zm24.58-6a18,18,0,0,1-5-3.18,18.28,18.28,0,0,1-3.34-4,14.12,14.12,0,0,0-2.1-2.74c-2.24-2.23-4.63-3.14-6.54-2.51-1.51.5-2.48,1.9-3.51,3.38a16.39,16.39,0,0,0-1.33,2.27A3.08,3.08,0,0,1,28,51.25,4.71,4.71,0,0,0,24.83,56a3,3,0,0,1-.33,1.46,5.19,5.19,0,0,0-.5,3.8,1.449,1.449,0,0,0,.16.42A30,30,0,0,1,7.7,16.91,3.51,3.51,0,0,1,11.27,22a4.69,4.69,0,0,0,.9,5.55l.15.14a9.13,9.13,0,0,0,2.92,1.77,6.38,6.38,0,0,1,2.07,1.23A6.2,6.2,0,0,1,19,34.19a.44.44,0,0,0,0,.1,6.3,6.3,0,0,0,2.4,3.54,6.77,6.77,0,0,0,4.22.84,15.64,15.64,0,0,1,4.12.31,13.82,13.82,0,0,1,2.8.93A1.026,1.026,0,0,0,34,39a6,6,0,0,0-1.21-3.58,6.45,6.45,0,0,0-2.49-1.8,2.958,2.958,0,0,1-1.42-1,2.83,2.83,0,0,1,.05-2.16A2.4,2.4,0,0,1,30.29,29a2.21,2.21,0,0,1,1.92.41,2.017,2.017,0,0,0,3.18-1.23,3.45,3.45,0,0,1,.88-1.69,3.61,3.61,0,0,1,1.67-1,17.78,17.78,0,0,0,5.64-2.64,18.49,18.49,0,0,0,2.31-1.95A3.91,3.91,0,0,0,47,18a4,4,0,0,0-1.37-2.9c-.33-.29-.69-.58-1.09-.87a16.41,16.41,0,0,0-2.18-1.32,4.5,4.5,0,0,0-4,0,3.48,3.48,0,0,1-3,.19h0a.56.56,0,0,1-.3-.46.58.58,0,0,1,.21-.53A4.12,4.12,0,0,0,37,7.7,4.24,4.24,0,0,0,33,5H30.91a7.1,7.1,0,0,1-3.17-.74l-1.13-.57A30,30,0,0,1,51.7,56.43Z" transform="translate(-1 -1)"/></svg>