<svg xmlns="http://www.w3.org/2000/svg" xmlns:xlink="http://www.w3.org/1999/xlink" width="134" height="187.5" viewBox="0 0 134 187.5"><defs><style>.a{fill:#fff;}.b,.c{fill:#707070;}.b{font-size:22px;font-family:Karla-Bold, Karla;font-weight:700;letter-spacing:0.005em;}.d{filter:url(#a);}</style><filter id="a" x="0" y="0" width="134" height="134" filterUnits="userSpaceOnUse"><feOffset dy="3" input="SourceAlpha"/><feGaussianBlur stdDeviation="3" result="b"/><feFlood flood-opacity="0.051"/><feComposite operator="in" in2="b"/><feComposite in="SourceGraphic"/></filter></defs><g transform="translate(-211.5 -1331.5)"><g class="d" transform="matrix(1, 0, 0, 1, 211.5, 1331.5)"><rect class="a" width="116" height="116" rx="58" transform="translate(9 6)"/></g><text class="b" transform="translate(278.5 1487)"><tspan x="-39.193" y="0">Gestão </tspan><tspan x="-56.914" y="26">e Negócios</tspan></text><g transform="translate(44.412 1130.821)"><path class="c" d="M211.583,249.241a1.059,1.059,0,0,1-1.048-.931l-.383-3.427-3.426.383a1.059,1.059,0,0,1-1.165-.932,1.074,1.074,0,0,1,.932-1.165l4.475-.482a1.028,1.028,0,0,1,1.148.915l.5,4.475a1.033,1.033,0,0,1-.915,1.148Z" transform="translate(54.25 0.005)"/><path class="c" d="M211.158,285.94a1.088,1.088,0,0,1-.582-.183l-8.018-5.356a1.046,1.046,0,0,1-.3-1.447,1.068,1.068,0,0,1,1.464-.3l7.252,4.84,14.422-17a1.067,1.067,0,0,1,1.264-.266l13.872,6.82,23.986-29.974a1.042,1.042,0,1,1,1.63,1.3l-24.5,30.639a1.054,1.054,0,0,1-1.28.283l-13.906-6.82-14.5,17.083A1.025,1.025,0,0,1,211.158,285.94Z" transform="translate(0 0)"/></g></g></svg>