<svg xmlns="http://www.w3.org/2000/svg" width="53.815" height="50.906" viewBox="0 0 53.815 50.906"><defs><style>.a{fill:#707070;}</style></defs><g transform="translate(-13 -967.362)"><path class="a" d="M29,968.817v34.452a9.9,9.9,0,0,0-6.545-2.454c-5.133,0-9.454,3.846-9.454,8.727s4.321,8.727,9.454,8.727,9.454-3.846,9.454-8.727v-39.27h32v27.18A9.9,9.9,0,0,0,57.361,995c-5.133,0-9.454,3.846-9.454,8.727s4.321,8.727,9.454,8.727,9.454-3.846,9.454-8.727V968.817a1.511,1.511,0,0,0-1.454-1.454H30.453A1.769,1.769,0,0,0,29,968.817Zm28.362,29.089c3.7,0,6.545,2.666,6.545,5.818s-2.842,5.818-6.545,5.818-6.545-2.666-6.545-5.818S53.657,997.906,57.361,997.906Zm-34.907,5.818c3.7,0,6.545,2.666,6.545,5.818s-2.842,5.818-6.545,5.818-6.545-2.666-6.545-5.818S18.751,1003.723,22.454,1003.723Z"/></g></svg>