<svg xmlns="http://www.w3.org/2000/svg" xmlns:xlink="http://www.w3.org/1999/xlink" width="140" height="187.5" viewBox="0 0 140 187.5"><defs><style>.a{fill:#fff;}.b,.c{fill:#707070;}.b{font-size:22px;font-family:Karla-Bold, Karla;font-weight:700;letter-spacing:0.005em;}.d{filter:url(#a);}</style><filter id="a" x="3" y="0" width="134" height="134" filterUnits="userSpaceOnUse"><feOffset dy="3" input="SourceAlpha"/><feGaussianBlur stdDeviation="3" result="b"/><feFlood flood-opacity="0.051"/><feComposite operator="in" in2="b"/><feComposite in="SourceGraphic"/></filter></defs><g transform="translate(-208.5 -1331.5)"><g class="d" transform="matrix(1, 0, 0, 1, 208.5, 1331.5)"><rect class="a" width="116" height="116" rx="58" transform="translate(12 6)"/></g><text class="b" transform="translate(278.5 1487)"><tspan x="-44.352" y="0">Por trás </tspan><tspan x="-69.168" y="26">das StartUps</tspan></text><g transform="translate(-2106.981 -802.5)"><path class="c" d="M24.573,9.5a7.073,7.073,0,1,0,7.073,7.073A7.081,7.081,0,0,0,24.573,9.5Zm0,11.316a4.244,4.244,0,1,1,4.244-4.244A4.249,4.249,0,0,1,24.573,20.816Z" transform="translate(2371.983 2169.816)"/><path class="c" d="M64.945,8.329A2.83,2.83,0,0,0,62.113,5.5c-11.486.02-19.821.849-30.7,11.73a52.649,52.649,0,0,0-7.033,8.776,11.312,11.312,0,0,0-13.953,4.388l-4.436,7.07A2.237,2.237,0,0,0,5.7,39.806c.458.832,1.423,1.129,2.713.7a19.812,19.812,0,0,1,6.108-.985,18.48,18.48,0,0,1,3.338.306c-.39,1.231-.642,2.164-.77,2.688a3.084,3.084,0,0,0,.775,2.77l7.285,7.288a3.142,3.142,0,0,0,2.77.781c.523-.13,1.46-.379,2.693-.77a19.386,19.386,0,0,1-.676,9.444,2.472,2.472,0,0,0,.15,2.221,1.719,1.719,0,0,0,1.415.707,2.8,2.8,0,0,0,1.48-.5l7.073-4.439A11.266,11.266,0,0,0,44.44,46.067a52.418,52.418,0,0,0,8.776-7.028C64.091,28.158,64.92,19.818,64.945,8.329ZM41.871,44.341l-1.171.71.679,1.194A8.454,8.454,0,0,1,38.55,57.621l-5.392,3.372A21.72,21.72,0,0,0,33,50.37l-.4-1.463-1.429.5a29.619,29.619,0,0,1-4.02,1.166l-7.322-7.367c.17-.673.546-2.082,1.2-3.938l.5-1.426-1.46-.407a23.046,23.046,0,0,0-10.64-.153l3.386-5.4a8.413,8.413,0,0,1,7.169-3.949,8.5,8.5,0,0,1,4.2,1.118l1.194.682.716-1.171a50.385,50.385,0,0,1,7.3-9.345C43.543,9.084,51.018,8.34,62.111,8.318c-.023,11.1-.767,18.576-10.9,28.7A49.6,49.6,0,0,1,41.871,44.341Z" transform="translate(2350 2162.5)"/><rect class="c" width="16.004" height="2.829" transform="translate(2355.948 2224.995) rotate(-45)"/><rect class="c" width="12.004" height="2.829" transform="translate(2355.948 2216.508) rotate(-45)"/><rect class="c" width="2.829" height="12.004" transform="translate(2366.437 2226.998) rotate(-135)"/></g></g></svg>