<svg xmlns="http://www.w3.org/2000/svg" width="51.381" height="81.232" viewBox="0 0 51.381 81.232"><defs><style>.a{fill:#707070;}</style></defs><g transform="translate(-2220.8 -2393)"><g transform="translate(2220.8 2417.901)"><g transform="translate(0 0)"><circle class="a" cx="1.132" cy="1.132" r="1.132" transform="translate(30.995)"/><path class="a" d="M67.99,64.755a10.619,10.619,0,0,0,3.4-1.48,2.07,2.07,0,0,0,.7-2.264l-.087-.174a10.377,10.377,0,0,0-.7-1.741l-.609-1.132c-1.045-1.828-2.09-3.744-3.221-5.485-.522-.784-.522-1.045-.087-1.654a7.132,7.132,0,0,0,1.045-4.614c-.174-1.393-.7-3.918-.7-4.179a1.256,1.256,0,0,0-.609-.958c-.087-.087-.174-.087-.261-.174h0c-3.308-2.438-17.587-2.7-22.289-2.7-4.963,0-20.2.261-22.724,3.047,0,.087-.087.087-.087.174s-.087.087-.087.174a.085.085,0,0,1-.087.087c0,.087,0,.087-.087.174v.087a17.387,17.387,0,0,0-.522,7.4A27.655,27.655,0,0,0,24.2,59.357c.7,1.219,2.264,3.657,3.744,6.008s3.134,4.876,3.4,5.485c2.09,4.353,1.132,9.751-2.786,15.585A1.463,1.463,0,0,0,28.462,88a1.551,1.551,0,0,0,1.393.871H54.669a1.412,1.412,0,0,0,1.393-.958,1.534,1.534,0,0,0-.522-1.654,6.107,6.107,0,0,1-2.351-7.052c2.438.261,8.794.174,10.448-.435,1.48-.522,3.483-1.306,2.786-4.005-.087-.261-.087-.522-.174-.871a2.576,2.576,0,0,0-.174-.871.488.488,0,0,1,.087-.522,5.72,5.72,0,0,0,1.045-1.48,4.816,4.816,0,0,0,.609-4.789,2.974,2.974,0,0,1-.174-1.306h0ZM44.395,40.028c11.493,0,19.067,1.132,20.9,2-1.828.958-9.4,2-20.9,2s-19.067-1.132-20.9-2C25.327,41.073,32.9,40.028,44.395,40.028ZM67.467,63.014H67.38c-.958.261-1.48.609-1.306,1.915a4.837,4.837,0,0,0,.348,1.828,3.184,3.184,0,0,1-.435,3.134,12.459,12.459,0,0,1-.958,1.306,2.4,2.4,0,0,0-.522,2.177,2.164,2.164,0,0,1,.087.7,5.1,5.1,0,0,0,.174,1.132c.261.871.261,1.132-1.654,1.828-1.306.522-7.836.609-9.838.261h0a12.54,12.54,0,0,1-4.266-1.828c-.087,0-6.443-3.4-6.443-7.749V65.539H40.738v2.177c0,5.485,7.139,9.229,7.4,9.316a17.316,17.316,0,0,0,3.4,1.567A7.872,7.872,0,0,0,53.8,86.957H30.377c5.137-7.923,4.353-13.582,2.612-16.978-.348-.7-1.828-3.047-3.483-5.659-1.48-2.264-2.96-4.7-3.657-5.92A25.542,25.542,0,0,1,22.8,49.083,16.494,16.494,0,0,1,22.89,43.6c4.353,2,17.065,2.264,21.505,2.264,4.527,0,17.5-.174,21.679-2.264.174.871.348,2.09.435,2.873a4.509,4.509,0,0,1-.784,3.308,2.965,2.965,0,0,0,.087,3.57c1.132,1.741,2.177,3.57,3.134,5.4l.609,1.132a7.532,7.532,0,0,1,.609,1.48l.087.174c0,.087.087.174-.087.261A5.508,5.508,0,0,1,67.467,63.014Z" transform="translate(-20.8 -32.541)"/></g></g><path class="a" d="M73.251,26.446H72.9a1.561,1.561,0,0,1-1.567-1.567V24.53a1.205,1.205,0,0,0-.958-1.132,1.028,1.028,0,0,0-1.132,1.045v.348a1.653,1.653,0,0,1-1.654,1.654H67.33A1.205,1.205,0,0,0,66.2,27.4a1.028,1.028,0,0,0,1.045,1.132h.348a1.653,1.653,0,0,1,1.654,1.654v.261a1.205,1.205,0,0,0,.958,1.132,1.028,1.028,0,0,0,1.132-1.045V30.1A1.561,1.561,0,0,1,72.9,28.535h.435A1.028,1.028,0,0,0,74.383,27.4,1.205,1.205,0,0,0,73.251,26.446Z" transform="translate(2194.129 2387.276)"/><path class="a" d="M50.451,11.633H50.1a1.561,1.561,0,0,1-1.567-1.567V9.63A1.205,1.205,0,0,0,47.578,8.5a1.028,1.028,0,0,0-1.132,1.045v.348a1.653,1.653,0,0,1-1.654,1.654H44.53A1.205,1.205,0,0,0,43.4,12.5a1.028,1.028,0,0,0,1.045,1.132h.348a1.653,1.653,0,0,1,1.654,1.654v.261a1.205,1.205,0,0,0,.958,1.132,1.028,1.028,0,0,0,1.132-1.045V15.2A1.561,1.561,0,0,1,50.1,13.635h.435A1.028,1.028,0,0,0,51.583,12.5,1.128,1.128,0,0,0,50.451,11.633Z" transform="translate(2197.078 2389.203)"/><g transform="translate(2248.974 2404.019)"><path class="a" d="M54.065,25.284a.652.652,0,0,1-.435-.087.881.881,0,0,1-.348-1.219,2.185,2.185,0,0,1,2.09-.871h.348a.66.66,0,0,1-.174-.348,2.045,2.045,0,0,1-.261-2.264,2.185,2.185,0,0,1,2.09-.871h.348a.66.66,0,0,1-.174-.348,2.222,2.222,0,0,1-.261-2.264,2.185,2.185,0,0,1,2.09-.871H59.9a.937.937,0,0,1,1.219-.261.881.881,0,0,1,.348,1.219,2.185,2.185,0,0,1-2.09.871h-.435a.66.66,0,0,1,.174.348,2.222,2.222,0,0,1,.261,2.264,2.185,2.185,0,0,1-2.09.871h-.348a.66.66,0,0,1,.174.348,2.045,2.045,0,0,1,.261,2.264,2.185,2.185,0,0,1-2.09.871h-.522A.792.792,0,0,1,54.065,25.284Z" transform="translate(-53.159 -15.756)"/></g><g transform="translate(2237.013 2409.291)"><path class="a" d="M45.759,32.249a.989.989,0,0,1-.7-.261,2.16,2.16,0,0,1-.174-2.264c0-.087.087-.261.087-.348-.087,0-.261.087-.348.087a1.942,1.942,0,0,1-2.177-.435,2.16,2.16,0,0,1-.174-2.264c0-.087.087-.261.087-.348-.087,0-.261.087-.348.087a1.942,1.942,0,0,1-2.177-.435,2.16,2.16,0,0,1-.174-2.264c.087-.174.087-.348.174-.522a.932.932,0,0,1,.087-1.219.877.877,0,0,1,1.306.087,2.16,2.16,0,0,1,.174,2.264c0,.087-.087.261-.087.348.087,0,.261-.087.348-.087a1.942,1.942,0,0,1,2.177.435,2.16,2.16,0,0,1,.174,2.264c0,.087-.087.261-.087.348.087,0,.261-.087.348-.087a1.942,1.942,0,0,1,2.177.435,2.16,2.16,0,0,1,.174,2.264,1.237,1.237,0,0,0-.174.522.932.932,0,0,1-.087,1.219A1.614,1.614,0,0,1,45.759,32.249Z" transform="translate(-39.421 -21.811)"/></g><path class="a" d="M28.237,29.364h-.261a1.153,1.153,0,0,1-1.132-1.132v-.348a.711.711,0,0,0-.7-.784.859.859,0,0,0-.871.784v.261a1.19,1.19,0,0,1-1.219,1.219h-.174a.711.711,0,0,0-.784.7.859.859,0,0,0,.784.871h.261a1.19,1.19,0,0,1,1.219,1.219v.174a.711.711,0,0,0,.7.784.859.859,0,0,0,.871-.784v-.348a1.153,1.153,0,0,1,1.132-1.132h.174a.8.8,0,0,0,.784-.871C29.02,29.625,28.585,29.364,28.237,29.364Z" transform="translate(2199.703 2386.796)"/><path class="a" d="M69.937,8.177h-.261a1.153,1.153,0,0,1-1.132-1.132V6.784a.711.711,0,0,0-.7-.784.859.859,0,0,0-.871.784v.261a1.19,1.19,0,0,1-1.219,1.219h-.174a.711.711,0,0,0-.784.7.859.859,0,0,0,.784.871h.261a1.19,1.19,0,0,1,1.219,1.219v.174a.711.711,0,0,0,.7.784.859.859,0,0,0,.871-.784v-.348a1.153,1.153,0,0,1,1.132-1.132h.348a.8.8,0,0,0,.784-.871A1.156,1.156,0,0,0,69.937,8.177Z" transform="translate(2194.309 2389.525)"/><path class="a" d="M32.937,14.277h-.261a1.153,1.153,0,0,1-1.132-1.132v-.261a.711.711,0,0,0-.7-.784.859.859,0,0,0-.871.784v.261a1.19,1.19,0,0,1-1.219,1.219h-.174a.711.711,0,0,0-.784.7.859.859,0,0,0,.784.871h.261a1.19,1.19,0,0,1,1.219,1.219v.087a.711.711,0,0,0,.7.784.859.859,0,0,0,.871-.784v-.348a1.153,1.153,0,0,1,1.132-1.132h.348a.8.8,0,0,0,.784-.871A1.256,1.256,0,0,0,32.937,14.277Z" transform="translate(2199.094 2388.736)"/><circle class="a" cx="1.132" cy="1.132" r="1.132" transform="translate(2252.666 2393.696)"/><circle class="a" cx="1.132" cy="1.132" r="1.132" transform="translate(2234.643 2393)"/><circle class="a" cx="1.132" cy="1.132" r="1.132" transform="translate(2233.425 2417.988)"/></g></svg>